0
SECTION
2
HEADER
9
$INSUNITS
70
4
9
$ACADVER
1
AC1014
9
$HANDSEED
5
FFFF
0
ENDSEC
0
SECTION
2
TABLES
0
TABLE
2
VPORT
5
8
100
AcDbSymbolTable
0
ENDTAB
0
TABLE
2
LTYPE
5
5
100
AcDbSymbolTable
0
LTYPE
5
14
100
AcDbSymbolTableRecord
100
AcDbLinetypeTableRecord
2
BYBLOCK
70
0
0
LTYPE
5
15
100
AcDbSymbolTableRecord
100
AcDbLinetypeTableRecord
2
BYLAYER
70
0
0
ENDTAB
0
TABLE
2
LAYER
5
2
100
AcDbSymbolTable
70
2
0
LAYER
5
50
100
AcDbSymbolTableRecord
100
AcDbLayerTableRecord
2
0
70
0
6
CONTINUOUS
0
ENDTAB
0
TABLE
2
STYLE
5
3
100
AcDbSymbolTable
70
1
0
STYLE
5
11
100
AcDbSymbolTableRecord
100
AcDbTextStyleTableRecord
2
STANDARD
70
0
0
ENDTAB
0
TABLE
2
VIEW
5
6
100
AcDbSymbolTable
70
0
0
ENDTAB
0
TABLE
2
UCS
5
7
100
AcDbSymbolTable
70
0
0
ENDTAB
0
TABLE
2
APPID
5
9
100
AcDbSymbolTable
70
2
0
APPID
5
12
100
AcDbSymbolTableRecord
100
AcDbRegAppTableRecord
2
ACAD
70
0
0
ENDTAB
0
TABLE
2
DIMSTYLE
5
A
100
AcDbSymbolTable
70
1
0
ENDTAB
0
TABLE
2
BLOCK_RECORD
5
1
100
AcDbSymbolTable
70
1
0
BLOCK_RECORD
5
1F
100
AcDbSymbolTableRecord
100
AcDbBlockTableRecord
2
*MODEL_SPACE
0
BLOCK_RECORD
5
1B
100
AcDbSymbolTableRecord
100
AcDbBlockTableRecord
2
*PAPER_SPACE
0
ENDTAB
0
ENDSEC
0
SECTION
2
BLOCKS
0
BLOCK
5
20
100
AcDbEntity
100
AcDbBlockBegin
2
*MODEL_SPACE
0
ENDBLK
5
21
100
AcDbEntity
100
AcDbBlockEnd
0
BLOCK
5
1C
100
AcDbEntity
100
AcDbBlockBegin
2
*PAPER_SPACE
0
ENDBLK
5
1D
100
AcDbEntity
100
AcDbBlockEnd
0
ENDSEC
0
SECTION
2
ENTITIES
0
CIRCLE
5
100
100
AcDbEntity
8
0
100
AcDbCircle
10
-180.94
20
93.427872279800127
30
0
40
1.4999999999999858
210
0
220
-0
230
1
0
CIRCLE
5
101
100
AcDbEntity
8
0
100
AcDbCircle
10
-54.740000000000002
20
110.02212772019982
30
0
40
1.5000000000000036
210
0
220
-0
230
1
0
CIRCLE
5
102
100
AcDbEntity
8
0
100
AcDbCircle
10
-180.94
20
110.02212772019982
30
0
40
1.4999999999999858
210
0
220
-0
230
1
0
CIRCLE
5
103
100
AcDbEntity
8
0
100
AcDbCircle
10
-54.740000000000002
20
93.42787227980017
30
0
40
1.5000000000000036
210
0
220
-0
230
1
0
LWPOLYLINE
5
104
100
AcDbEntity
8
0
100
AcDbPolyline
90
14
70
1
43
0.0
10
-161.41523038488532
20
129.54999999999998
42
0.32838901162100048
10
-158.55066089748993
20
131.65879763696265
42
-0.32838901162100048
10
-155.68609141009455
20
133.76759527392534
10
-79.993908589905473
20
133.76759527392534
42
-0.32838901162100026
10
-77.129339102510087
20
131.65879763696265
42
0.32838901162100109
10
-74.264769615114687
20
129.54999999999998
10
-62.740000000000009
20
129.54999999999998
42
-0.41421356237309587
10
-59.740000000000002
20
126.54999999999998
10
-59.740000000000002
20
76.899999999999991
42
-0.41421356237309509
10
-62.740000000000002
20
73.899999999999991
10
-172.94
20
73.899999999999991
42
-0.41421356237309509
10
-175.94
20
76.899999999999991
10
-175.94000000000005
20
126.54999999999998
42
-0.41421356237309509
10
-172.94000000000005
20
129.54999999999998
0
LWPOLYLINE
5
105
100
AcDbEntity
8
0
100
AcDbPolyline
90
8
70
1
43
0.0
10
-49.740000000000002
20
136.54999999999995
42
0.4142135623730942
10
-52.740000000000009
20
139.54999999999998
10
-182.94
20
139.54999999999998
42
0.41421356237309331
10
-185.94
20
136.54999999999998
10
-185.94
20
66.899999999999991
42
0.41421356237308982
10
-182.94000000000005
20
63.899999999999963
10
-52.740000000000009
20
63.899999999999991
42
0.41421356237309681
10
-49.740000000000009
20
66.899999999999991
0
CIRCLE
5
106
100
AcDbEntity
8
0
100
AcDbCircle
10
-54.740000000000009
20
68.899999999999991
30
0
40
1.25
210
0
220
-0
230
1
0
CIRCLE
5
107
100
AcDbEntity
8
0
100
AcDbCircle
10
-180.94
20
68.899999999999991
30
0
40
1.25
210
0
220
-0
230
1
0
CIRCLE
5
108
100
AcDbEntity
8
0
100
AcDbCircle
10
-180.94
20
134.54999999999998
30
0
40
1.25
210
0
220
-0
230
1
0
CIRCLE
5
109
100
AcDbEntity
8
0
100
AcDbCircle
10
-54.740000000000009
20
134.54999999999998
30
0
40
1.25
210
0
220
-0
230
1
0
CIRCLE
5
110
100
AcDbEntity
8
0
100
AcDbCircle
10
-180.94
20
93.427872279800127
30
0
40
1.4999999999999858
210
0
220
0
230
1
0
CIRCLE
5
111
100
AcDbEntity
8
0
100
AcDbCircle
10
-54.740000000000002
20
110.02212772019982
30
0
40
1.5000000000000036
210
0
220
0
230
1
0
CIRCLE
5
112
100
AcDbEntity
8
0
100
AcDbCircle
10
-180.94
20
110.02212772019982
30
0
40
1.4999999999999858
210
0
220
0
230
1
0
CIRCLE
5
113
100
AcDbEntity
8
0
100
AcDbCircle
10
-54.740000000000002
20
93.42787227980017
30
0
40
1.5000000000000036
210
0
220
0
230
1
0
LWPOLYLINE
5
114
100
AcDbEntity
8
0
100
AcDbPolyline
90
14
70
1
43
0.0
10
-161.41523038488532
20
129.54999999999998
42
0.32838901162100048
10
-158.55066089748993
20
131.65879763696265
42
-0.32838901162099504
10
-155.68609141009455
20
133.76759527392534
10
-79.993908589905473
20
133.76759527392528
42
-0.3283890116210017
10
-77.129339102510087
20
131.65879763696265
42
0.32838901162100131
10
-74.264769615114687
20
129.54999999999998
10
-62.740000000000009
20
129.54999999999998
42
-0.41421356237308898
10
-59.740000000000002
20
126.54999999999998
10
-59.740000000000002
20
76.899999999999991
42
-0.41421356237309509
10
-62.740000000000002
20
73.899999999999991
10
-172.94000000000005
20
73.900000000000006
42
-0.41421356237308982
10
-175.94
20
76.899999999999991
10
-175.94000000000005
20
126.54999999999998
42
-0.4142135623730881
10
-172.94000000000005
20
129.54999999999998
0
CIRCLE
5
115
100
AcDbEntity
8
0
100
AcDbCircle
10
-54.740000000000009
20
68.899999999999991
30
0
40
1.25
210
0
220
-0
230
1
0
CIRCLE
5
116
100
AcDbEntity
8
0
100
AcDbCircle
10
-180.94
20
68.899999999999991
30
0
40
1.25
210
0
220
-0
230
1
0
CIRCLE
5
117
100
AcDbEntity
8
0
100
AcDbCircle
10
-180.94
20
134.54999999999998
30
0
40
1.25
210
0
220
-0
230
1
0
CIRCLE
5
118
100
AcDbEntity
8
0
100
AcDbCircle
10
-54.740000000000009
20
134.54999999999998
30
0
40
1.25
210
0
220
-0
230
1
0
LWPOLYLINE
5
119
100
AcDbEntity
8
0
100
AcDbPolyline
90
8
70
1
43
0.0
10
-49.739999999999995
20
136.54999999999998
42
0.41421356237309587
10
-52.740000000000009
20
139.54999999999998
10
-182.94
20
139.54999999999998
42
0.41421356237309509
10
-185.94
20
136.54999999999998
10
-185.94000000000005
20
66.899999999999991
42
0.41421356237309509
10
-182.94000000000005
20
63.899999999999991
10
-52.740000000000009
20
63.899999999999991
42
0.41421356237309509
10
-49.740000000000009
20
66.899999999999991
0
ENDSEC
0
SECTION
2
OBJECTS
0
DICTIONARY
5
C
100
AcDbDictionary
3
ACAD_GROUP
350
D
3
ACAD_MLINESTYLE
350
17
0
DICTIONARY
5
D
100
AcDbDictionary
0
DICTIONARY
5
1A
330
C
100
AcDbDictionary
0
DICTIONARY
5
17
100
AcDbDictionary
0
ENDSEC
0
EOF
