0
SECTION
2
HEADER
9
$INSUNITS
70
4
9
$ACADVER
1
AC1014
9
$HANDSEED
5
FFFF
0
ENDSEC
0
SECTION
2
TABLES
0
TABLE
2
VPORT
5
8
100
AcDbSymbolTable
0
ENDTAB
0
TABLE
2
LTYPE
5
5
100
AcDbSymbolTable
0
LTYPE
5
14
100
AcDbSymbolTableRecord
100
AcDbLinetypeTableRecord
2
BYBLOCK
70
0
0
LTYPE
5
15
100
AcDbSymbolTableRecord
100
AcDbLinetypeTableRecord
2
BYLAYER
70
0
0
ENDTAB
0
TABLE
2
LAYER
5
2
100
AcDbSymbolTable
70
2
0
LAYER
5
50
100
AcDbSymbolTableRecord
100
AcDbLayerTableRecord
2
0
70
0
6
CONTINUOUS
0
ENDTAB
0
TABLE
2
STYLE
5
3
100
AcDbSymbolTable
70
1
0
STYLE
5
11
100
AcDbSymbolTableRecord
100
AcDbTextStyleTableRecord
2
STANDARD
70
0
0
ENDTAB
0
TABLE
2
VIEW
5
6
100
AcDbSymbolTable
70
0
0
ENDTAB
0
TABLE
2
UCS
5
7
100
AcDbSymbolTable
70
0
0
ENDTAB
0
TABLE
2
APPID
5
9
100
AcDbSymbolTable
70
2
0
APPID
5
12
100
AcDbSymbolTableRecord
100
AcDbRegAppTableRecord
2
ACAD
70
0
0
ENDTAB
0
TABLE
2
DIMSTYLE
5
A
100
AcDbSymbolTable
70
1
0
ENDTAB
0
TABLE
2
BLOCK_RECORD
5
1
100
AcDbSymbolTable
70
1
0
BLOCK_RECORD
5
1F
100
AcDbSymbolTableRecord
100
AcDbBlockTableRecord
2
*MODEL_SPACE
0
BLOCK_RECORD
5
1B
100
AcDbSymbolTableRecord
100
AcDbBlockTableRecord
2
*PAPER_SPACE
0
ENDTAB
0
ENDSEC
0
SECTION
2
BLOCKS
0
BLOCK
5
20
100
AcDbEntity
100
AcDbBlockBegin
2
*MODEL_SPACE
0
ENDBLK
5
21
100
AcDbEntity
100
AcDbBlockEnd
0
BLOCK
5
1C
100
AcDbEntity
100
AcDbBlockBegin
2
*PAPER_SPACE
0
ENDBLK
5
1D
100
AcDbEntity
100
AcDbBlockEnd
0
ENDSEC
0
SECTION
2
ENTITIES
0
CIRCLE
5
100
100
AcDbEntity
8
0
100
AcDbCircle
10
28.499933732038983
20
0.0066232156155962389
30
0
40
50.500000000000028
210
-0
220
0
230
1
0
LWPOLYLINE
5
101
100
AcDbEntity
8
0
100
AcDbPolyline
90
8
70
1
43
0.0
10
93.5
20
55.999999999999979
42
0.41421356237309331
10
90.5
20
58.999999999999986
10
-90.5
20
59.000000000000014
42
0.41421356237308288
10
-93.499999999999972
20
56.000000000000014
10
-93.5
20
-56.000000000000014
42
0.41421356237308465
10
-90.5
20
-59
10
90.500000000000028
20
-59.000000000000021
42
0.41421356237308726
10
93.5
20
-56.000000000000014
0
CIRCLE
5
102
100
AcDbEntity
8
0
100
AcDbCircle
10
-89.000000000000043
20
54.5
30
0
40
1.5000000000000036
210
0
220
0
230
1
0
CIRCLE
5
103
100
AcDbEntity
8
0
100
AcDbCircle
10
89.000000000000043
20
54.499999999999986
30
0
40
1.5000000000000036
210
0
220
0
230
1
0
CIRCLE
5
104
100
AcDbEntity
8
0
100
AcDbCircle
10
-8.8817841970012507e-15
20
54.5
30
0
40
1.5000000000000036
210
0
220
0
230
1
0
CIRCLE
5
105
100
AcDbEntity
8
0
100
AcDbCircle
10
89.000000000000043
20
-54.500000000000021
30
0
40
1.5000000000000036
210
0
220
0
230
1
0
CIRCLE
5
106
100
AcDbEntity
8
0
100
AcDbCircle
10
-79.823950029542843
20
-30.803054698196021
30
0
40
3.2499999999999929
210
0
220
0
230
1
0
CIRCLE
5
107
100
AcDbEntity
8
0
100
AcDbCircle
10
-89.000000000000043
20
-54.500000000000021
30
0
40
1.5000000000000036
210
0
220
0
230
1
0
CIRCLE
5
108
100
AcDbEntity
8
0
100
AcDbCircle
10
0
20
-54.500000000000021
30
0
40
1.5000000000000036
210
0
220
0
230
1
0
LWPOLYLINE
5
109
100
AcDbEntity
8
0
100
AcDbPolyline
90
4
70
1
43
0.0
10
-71.18629150101539
20
-17.171572795331109
10
-45.328427124746199
20
8.6862915809380592
42
-0.99999999999999989
10
-42.500000000000014
20
5.8578644561918747
10
-68.357864376269191
20
-19.999999920077293
42
-0.99999999999999989
0
LWPOLYLINE
5
110
100
AcDbEntity
8
0
100
AcDbPolyline
90
4
70
1
43
0.0
10
-82.500000000000014
20
5.4558442026383247
10
-67.955844122715604
20
20.000000079922707
42
-0.99999999999999989
10
-65.127416997969462
20
17.171572955176529
10
-79.671572875253801
20
2.6274170778921402
42
-0.99999999999999989
0
LWPOLYLINE
5
111
100
AcDbEntity
8
0
100
AcDbPolyline
90
4
70
1
43
0.0
10
-59.872583031832917
20
-17.171572825133421
42
0.99999999999999989
10
-57.044155847482109
20
-19.999999890274967
10
-42.500000000000014
20
-5.4558440427929149
42
0.99999999999999989
10
-45.328427124746199
20
-2.6274169180467233
0
LWPOLYLINE
5
112
100
AcDbEntity
8
0
100
AcDbPolyline
90
4
70
1
43
0.0
10
-42.500000000000014
20
-16.769552541777657
42
0.99999998946328772
10
-45.328427124746199
20
-13.941125417031477
10
-48.558874503045828
20
-17.171572795331105
42
0.99999999999999989
10
-45.730447378299658
20
-19.999999920077293
0
LWPOLYLINE
5
113
100
AcDbEntity
8
0
100
AcDbPolyline
90
4
70
1
43
0.0
10
-42.500000000000014
20
17.171572955176515
10
-79.671572922375432
20
-19.999999967198899
42
-0.99999998709521576
10
-82.499999989378665
20
-17.171572784709738
10
-45.328427124746199
20
20.000000079922717
42
-0.99999999999999989
0
LWPOLYLINE
5
114
100
AcDbEntity
8
0
100
AcDbPolyline
90
4
70
1
43
0.0
10
-82.5
20
16.769552701623081
42
0.99999999999999989
10
-79.671572875253887
20
13.941125576876896
10
-76.4411254969542
20
17.171572955176529
42
0.99999999999999989
10
-79.269552621700385
20
20.000000079922714
0
LWPOLYLINE
5
115
100
AcDbEntity
8
0
100
AcDbPolyline
90
4
70
1
43
0.0
10
-53.813708498984667
20
17.171572955176519
42
0.99999999999999989
10
-56.642135623730852
20
20.000000079922703
10
-82.500000000000014
20
-5.8578642963464578
42
0.99999999999999989
10
-79.67157287525383
20
-8.6862914210926423
0
ENDSEC
0
SECTION
2
OBJECTS
0
DICTIONARY
5
C
100
AcDbDictionary
3
ACAD_GROUP
350
D
3
ACAD_MLINESTYLE
350
17
0
DICTIONARY
5
D
100
AcDbDictionary
0
DICTIONARY
5
1A
330
C
100
AcDbDictionary
0
DICTIONARY
5
17
100
AcDbDictionary
0
ENDSEC
0
EOF
